<?xml version="1.0" standalone="no"?>
<svg viewBox="0 0 200 200" xmlns="http://www.w3.org/2000/svg">
  <path fill="#FFFFFF" d="M27.6,-45C37.2,-36.8,47.4,-31.5,49.1,-23.6C50.9,-15.7,44.2,-5.2,43.7,7.1C43.2,19.4,49,33.4,46.7,46C44.4,58.6,34.1,69.6,21.4,73.8C8.7,78.1,-6.3,75.4,-15.7,66.7C-25.1,57.9,-28.9,43.1,-37,32.7C-45,22.2,-57.4,16.1,-59.2,8.1C-61,0.1,-52.1,-9.8,-46.6,-20.9C-41,-32,-38.6,-44.3,-31.4,-53.6C-24.2,-62.9,-12.1,-69.4,-1.5,-67C9,-64.5,18,-53.3,27.6,-45Z" transform="translate(100 100)" />
</svg>
